<?xml version="1.0" ?>
<!-- Uploaded to: SVG Repo, www.svgrepo.com, Generator: SVG Repo Mixer Tools -->
<svg fill="#000000" width="800px" height="800px" viewBox="0 0 512 512" id="Layer_1" version="1.1" xml:space="preserve" xmlns="http://www.w3.org/2000/svg" xmlns:xlink="http://www.w3.org/1999/xlink">
<g>
<g>
<g>
<path d="M133.8,422.4h-5.7c-22.4,0-40.7-18.2-40.7-40.7c0-8.9,7.2-16.2,16.2-16.2h54.7c8.9,0,16.2,7.2,16.2,16.2     C174.5,404.2,156.3,422.4,133.8,422.4z M103.7,380.6c-0.6,0-1.2,0.5-1.2,1.2c0,14.1,11.5,25.7,25.7,25.7h5.7     c14.1,0,25.7-11.5,25.7-25.7c0-0.6-0.5-1.2-1.2-1.2H103.7z"/>
</g>
<g>
<path d="M383.8,422.4h-5.7c-22.4,0-40.7-18.2-40.7-40.7c0-8.9,7.2-16.2,16.2-16.2h54.7c8.9,0,16.2,7.2,16.2,16.2     C424.5,404.2,406.3,422.4,383.8,422.4z M353.7,380.6c-0.6,0-1.2,0.5-1.2,1.2c0,14.1,11.5,25.7,25.7,25.7h5.7     c14.1,0,25.7-11.5,25.7-25.7c0-0.6-0.5-1.2-1.2-1.2H353.7z"/>
</g>
</g>
<g>
<path d="M421.4,380.6H90.6c-26.5,0-48.1-21.6-48.1-48.1V137.7c0-26.5,21.6-48.1,48.1-48.1h330.8c26.5,0,48.1,21.6,48.1,48.1v194.8    C469.5,359,447.9,380.6,421.4,380.6z M90.6,104.6c-18.3,0-33.1,14.9-33.1,33.1v194.8c0,18.3,14.9,33.1,33.1,33.1h330.8    c18.3,0,33.1-14.9,33.1-33.1V137.7c0-18.3-14.9-33.1-33.1-33.1H90.6z"/>
</g>
<g>
<path d="M141,339.6h-12.8c-26.5,0-48.1-21.6-48.1-48.1V178.7c0-26.5,21.6-48.1,48.1-48.1h127.1c4.1,0,7.5,3.4,7.5,7.5    s-3.4,7.5-7.5,7.5H128.2c-18.3,0-33.1,14.9-33.1,33.1v112.8c0,18.3,14.9,33.1,33.1,33.1H141c4.1,0,7.5,3.4,7.5,7.5    S145.1,339.6,141,339.6z"/>
</g>
<g>
<path d="M305.6,339.6H175c-4.1,0-7.5-3.4-7.5-7.5s3.4-7.5,7.5-7.5h130.6c18.3,0,33.1-14.9,33.1-33.1V178.7    c0-18.3-14.9-33.1-33.1-33.1H291c-4.1,0-7.5-3.4-7.5-7.5s3.4-7.5,7.5-7.5h14.6c26.5,0,48.1,21.6,48.1,48.1v112.8    C353.7,318,332.1,339.6,305.6,339.6z"/>
</g>
<g>
<g>
<path d="M425,190.1h-42c-4.1,0-7.5-3.4-7.5-7.5s3.4-7.5,7.5-7.5h42c4.1,0,7.5,3.4,7.5,7.5S429.1,190.1,425,190.1z"/>
</g>
<g>
<path d="M425,225.1h-42c-4.1,0-7.5-3.4-7.5-7.5s3.4-7.5,7.5-7.5h42c4.1,0,7.5,3.4,7.5,7.5S429.1,225.1,425,225.1z"/>
</g>
<g>
<path d="M425,260.1h-42c-4.1,0-7.5-3.4-7.5-7.5s3.4-7.5,7.5-7.5h42c4.1,0,7.5,3.4,7.5,7.5S429.1,260.1,425,260.1z"/>
</g>
<g>
<path d="M425,295.1h-42c-4.1,0-7.5-3.4-7.5-7.5s3.4-7.5,7.5-7.5h42c4.1,0,7.5,3.4,7.5,7.5S429.1,295.1,425,295.1z"/>
</g>
</g>
<g>
<path d="M240,295.1h-0.1c-3-0.1-5.7-1.9-6.8-4.8L197.8,200l-24.2,42.6c-1.3,2.3-3.8,3.8-6.5,3.8H87.6c-4.1,0-7.5-3.4-7.5-7.5    s3.4-7.5,7.5-7.5h75l29.8-52.5c1.4-2.5,4.2-4,7.1-3.8c2.9,0.2,5.4,2.1,6.4,4.8l34.4,88l16.8-38.6c1.2-2.7,3.9-4.5,6.9-4.5h81    c4.1,0,7.5,3.4,7.5,7.5s-3.4,7.5-7.5,7.5h-76.1l-22,50.8C245.7,293.3,243,295.1,240,295.1z"/>
</g>
</g>
</svg>